<?xml version="1.0" standalone="no"?>
        <!DOCTYPE svg PUBLIC "-//W3C//DTD SVG 1.1//EN" 
        "http://www.w3.org/Graphics/SVG/1.1/DTD/svg11.dtd"><svg id="changeColor" fill="#DC7633" xmlns="http://www.w3.org/2000/svg" xmlns:xlink="http://www.w3.org/1999/xlink" width="164" zoomAndPan="magnify" viewBox="0 0 375 374.9999" height="164" preserveAspectRatio="xMidYMid meet" version="1.0" style="transform: none;"><defs><path id="pathAttribute" d="M 7.09375 7.09375 L 367.84375 7.09375 L 367.84375 367.84375 L 7.09375 367.84375 Z M 7.09375 7.09375 " fill="#9b8d7d" stroke="#886425" stroke-width="4.6"></path></defs><g><path id="pathAttribute" d="M 187.46875 7.09375 C 87.851562 7.09375 7.09375 87.851562 7.09375 187.46875 C 7.09375 287.085938 87.851562 367.84375 187.46875 367.84375 C 287.085938 367.84375 367.84375 287.085938 367.84375 187.46875 C 367.84375 87.851562 287.085938 7.09375 187.46875 7.09375 " fill-opacity="1" fill-rule="nonzero" fill="#9b8d7d" stroke="#886425" stroke-width="4.6"></path></g><g id="inner-icon" transform="translate(85, 75)"> <svg xmlns="http://www.w3.org/2000/svg" viewBox="0 0 24 24" id="IconChangeColor" height="215" width="215"><path d="M19,13a1,1,0,0,0-1,1v.38L16.52,12.9a2.79,2.79,0,0,0-3.93,0l-.7.7L9.41,11.12a2.85,2.85,0,0,0-3.93,0L4,12.6V7A1,1,0,0,1,5,6h7a1,1,0,0,0,0-2H5A3,3,0,0,0,2,7V19a3,3,0,0,0,3,3H17a3,3,0,0,0,3-3V14A1,1,0,0,0,19,13ZM5,20a1,1,0,0,1-1-1V15.43l2.9-2.9a.79.79,0,0,1,1.09,0l3.17,3.17,0,0L15.46,20Zm13-1a.89.89,0,0,1-.18.53L13.31,15l.7-.7a.77.77,0,0,1,1.1,0L18,17.21ZM22.71,4.29l-3-3a1,1,0,0,0-.33-.21,1,1,0,0,0-.76,0,1,1,0,0,0-.33.21l-3,3a1,1,0,0,0,1.42,1.42L18,4.41V10a1,1,0,0,0,2,0V4.41l1.29,1.3a1,1,0,0,0,1.42,0A1,1,0,0,0,22.71,4.29Z" id="mainIconPathAttribute" filter="url(#shadow)" fill="#ed7402" stroke-width="0" stroke="#f4dfc3"></path><filter id="shadow"><feDropShadow id="shadowValue" stdDeviation="0.1" dx="-1.5" dy="1.5" flood-color="black"></feDropShadow></filter></svg> </g></svg>